<svg xmlns="http://www.w3.org/2000/svg" viewBox="0 0 24 24" fill="none" stroke="#6366f1" stroke-width="2" stroke-linecap="round" stroke-linejoin="round">
  <path d="M12 2a10 10 0 1 0 10 10A10 10 0 0 0 12 2Zm0 18a8 8 0 1 1 8-8 8 8 0 0 1-8 8Z"/>
  <path d="M12 6v6l4 2"/>
  <circle cx="12" cy="12" r="3" fill="#6366f1" fill-opacity="0.3"/>
  <path d="M12 2v2"/>
  <path d="M12 20v2"/>
  <path d="M4.93 4.93l1.41 1.41"/>
  <path d="M17.66 17.66l1.41 1.41"/>
  <path d="M2 12h2"/>
  <path d="M20 12h2"/>
  <path d="M4.93 19.07l1.41-1.41"/>
  <path d="M17.66 6.34l1.41-1.41"/>
</svg>
